<svg version="1.1" id="Layer_1" xmlns="http://www.w3.org/2000/svg" xmlns:xlink="http://www.w3.org/1999/xlink" x="0px" y="0px"
	 width="100%" viewBox="0 0 500 500" enable-background="new 0 0 500 500" xml:space="preserve">
<path fill="#FEFFFF" opacity="1.000000" stroke="none" 
	d="
M282.000000,501.000000 
	C188.000015,501.000000 94.500046,501.000000 1.000050,501.000000 
	C1.000033,334.333405 1.000033,167.666794 1.000017,1.000140 
	C167.666565,1.000093 334.333130,1.000093 500.999756,1.000046 
	C500.999847,167.666519 500.999847,334.333038 500.999939,500.999786 
	C428.166656,501.000000 355.333344,501.000000 282.000000,501.000000 
M205.519974,276.693909 
	C205.681000,276.130096 205.842010,275.566254 206.532562,274.595673 
	C206.695923,273.731476 206.859283,272.867249 206.998032,271.996765 
	C206.998032,271.996765 207.002579,272.021606 207.650940,271.668732 
	C208.709076,267.034668 209.767212,262.400574 210.875702,256.860016 
	C210.930115,255.037659 211.196411,253.192245 211.001266,251.397018 
	C210.259857,244.576904 209.369263,237.772980 208.322739,230.271545 
	C207.881424,229.499146 207.440109,228.726761 206.984360,228.008499 
	C206.984360,228.008499 207.038879,228.021439 207.226074,227.248520 
	C203.536362,220.748566 199.846649,214.248627 195.902847,207.138153 
	C193.996521,205.080307 192.253784,202.836502 190.158539,200.993423 
	C169.211273,182.566986 145.404984,177.586990 119.651115,188.423904 
	C93.554993,199.404816 79.784401,220.208374 78.738869,248.376450 
	C77.416748,283.996094 106.018890,314.925568 140.550827,316.078003 
	C141.697601,316.038605 142.844360,315.999207 144.660645,316.090576 
	C145.110992,316.042725 145.561356,315.994843 146.471130,316.197479 
	C147.301666,316.077545 148.132187,315.957611 149.755051,315.912659 
	C151.832306,315.586823 153.909561,315.260986 156.787827,315.019257 
	C159.519104,314.014435 162.250381,313.009613 165.676422,312.079773 
	C168.052643,312.936005 170.218781,313.248474 171.579910,310.216125 
	C178.783249,307.385376 185.566193,303.916595 191.286942,297.429260 
	C189.808228,297.429260 188.880005,297.138092 188.348236,297.474213 
	C182.921997,300.903900 177.542007,304.408325 172.206192,307.977295 
	C171.616638,308.371613 171.382828,309.297821 170.307678,309.679962 
	C167.660736,308.770081 165.030777,307.910980 163.158218,311.856049 
	C160.761047,312.304749 158.363876,312.753479 155.175476,313.139740 
	C152.773682,313.400116 150.371902,313.660461 147.326157,313.759430 
	C146.890213,313.813660 146.454254,313.867920 145.341370,313.800201 
	C144.885010,313.829346 144.428635,313.858490 143.237640,313.677002 
	C142.495026,313.775177 141.752426,313.873322 140.502380,313.939941 
	C140.338699,313.896057 140.175003,313.852173 139.809830,313.073456 
	C138.076630,312.766296 136.343414,312.459137 133.885117,312.201843 
	C132.259369,311.760803 130.633621,311.319763 128.911758,310.174835 
	C127.831802,308.065552 126.613647,306.892334 124.100922,309.382965 
	C119.339264,306.752899 114.577599,304.122833 109.850670,300.702240 
	C108.852386,300.155182 107.854111,299.608124 106.235176,298.826141 
	C99.168045,292.903656 93.384041,285.994354 90.101799,276.678131 
	C91.445641,274.605011 92.789482,272.531921 94.927292,270.755829 
	C95.589218,273.058228 96.251144,275.360626 96.971481,277.866241 
	C97.925850,277.165009 98.807358,276.517303 100.454132,275.935211 
	C101.301643,275.266327 102.149155,274.597473 103.711662,273.984131 
	C106.083794,274.863861 108.455925,275.743561 111.232872,277.262726 
	C112.445137,277.512909 113.657410,277.763092 115.375404,278.381256 
	C116.249634,278.922791 117.123856,279.464325 117.997375,280.793732 
	C118.019371,281.581146 118.041374,282.368591 118.087700,283.868683 
	C118.812904,285.890442 119.538109,287.912231 119.496368,290.068024 
	C119.007355,291.402374 118.518341,292.736725 117.752136,294.666412 
	C117.344009,295.250275 116.935875,295.834137 116.527748,296.417999 
	C124.256622,293.908234 124.998566,300.323273 127.468964,305.196564 
	C129.727158,299.544189 131.144699,294.004028 138.259277,294.351257 
	C138.842422,293.906799 139.425568,293.462341 140.004517,292.996674 
	C140.004517,292.996674 140.023193,293.011414 140.692261,292.925476 
	C141.499435,291.927612 142.306595,290.929779 143.787598,289.950592 
	C146.177872,289.627808 148.568161,289.304993 151.474106,289.355164 
	C151.655212,289.951447 151.836334,290.547729 151.692871,291.629120 
	C152.268066,292.203827 152.761307,293.145111 153.431488,293.294922 
	C158.540405,294.437042 161.819717,297.349365 163.031311,302.524780 
	C163.206055,303.271271 163.780731,303.924133 164.368835,304.975037 
	C165.383606,303.087585 166.212845,301.545227 167.703354,299.906616 
	C168.139877,298.990082 168.576416,298.073547 169.822098,296.986084 
	C171.506607,296.986084 173.191116,296.986084 174.875626,296.986084 
	C175.231171,296.638367 175.586700,296.290649 175.942245,295.942932 
	C169.432022,292.841492 171.132431,288.840912 173.537109,284.733673 
	C173.774841,284.327637 173.759338,283.773346 173.940659,282.447571 
	C173.951752,281.603851 173.962845,280.760132 174.402039,279.461182 
	C175.335098,278.646393 176.268173,277.831604 177.965057,277.014160 
	C179.821091,275.861450 182.672958,280.307373 183.966980,275.985229 
	C183.966980,275.985229 183.939163,275.962799 184.350342,275.890381 
	C184.622757,275.785126 184.825912,275.602692 185.450684,275.016907 
	C185.834427,274.943298 186.218185,274.869720 187.315842,275.105896 
	C188.266693,274.780914 189.217545,274.455933 190.877289,274.469238 
	C192.084625,275.465729 193.291977,276.462219 195.306778,278.125183 
	C194.764450,272.406525 196.652893,269.237793 202.599075,268.993713 
	C203.731949,269.994507 204.864822,270.995270 205.991440,272.746613 
	C205.993271,273.496948 205.995102,274.247253 205.478683,275.297821 
	C205.309189,275.857269 205.139709,276.416687 204.519455,277.172241 
	C204.247208,277.379852 204.069244,277.649658 203.445511,278.377045 
	C202.591995,280.221771 201.738464,282.066467 200.481247,284.218170 
	C200.507248,284.618958 200.533249,285.019714 200.559250,285.420502 
	C200.751556,284.989258 200.943863,284.557983 201.824997,283.936157 
	C202.557129,281.963226 203.289261,279.990326 204.480423,277.835785 
	C204.754929,277.629181 204.935394,277.359589 205.519974,276.693909 
M248.991745,299.924591 
	C254.258423,299.138458 258.593872,297.066528 260.066254,291.418976 
	C261.619659,285.460632 258.914856,281.274567 253.616898,278.113403 
	C258.932007,274.644440 260.843445,270.131165 258.791809,264.585815 
	C256.774719,259.133759 251.903870,257.608215 246.722244,257.405334 
	C240.134842,257.147400 233.529678,257.342896 226.766739,257.342896 
	C226.766739,271.809784 226.766739,285.785736 226.766739,299.969116 
	C234.153259,299.969116 241.122299,299.969116 248.991745,299.924591 
M298.104004,283.498291 
	C298.104004,274.088043 298.104004,264.677765 298.104004,255.456619 
	C294.209167,255.456619 291.143219,255.456619 287.568787,255.456619 
	C287.568787,260.358490 287.568787,264.862579 287.568787,269.678131 
	C279.455658,264.309937 271.898865,264.685547 266.771240,270.341034 
	C261.071655,276.627380 260.905273,288.617096 266.423950,295.368530 
	C271.416321,301.476105 278.984619,301.986298 287.336731,296.788208 
	C289.497986,302.860626 294.167908,298.927521 298.104065,300.052216 
	C298.104065,294.432892 298.104065,289.464844 298.104004,283.498291 
M247.219849,235.836197 
	C236.998947,235.151382 231.807434,225.010559 237.232239,216.326981 
	C240.296829,211.421432 248.222992,209.477280 251.957581,213.633987 
	C256.304108,218.471786 260.963104,216.631683 265.917786,216.663895 
	C262.979218,205.878891 252.911560,200.084869 241.637329,202.276855 
	C230.251297,204.490585 223.715851,214.132050 224.962585,226.876404 
	C226.018692,237.672470 234.811188,245.313599 246.131271,245.273117 
	C256.576111,245.235764 264.843018,239.004150 265.540497,230.449326 
	C260.516083,230.320908 255.318588,228.961975 251.555130,234.093872 
	C250.883316,235.009949 249.198242,235.182968 247.219849,235.836197 
M329.147614,266.081024 
	C328.190979,267.099915 327.234344,268.118805 326.253235,269.163788 
	C319.084839,264.293427 311.811310,264.562317 306.591064,270.006897 
	C300.745026,276.104156 300.270935,288.142578 305.607819,294.973663 
	C310.555084,301.306030 317.572784,302.055115 326.480560,297.201721 
	C328.191589,300.506104 330.068573,300.879211 337.379547,299.364899 
	C337.379547,288.349487 337.379547,277.334076 337.379547,266.069580 
	C334.626923,266.069580 332.307190,266.069580 329.147614,266.081024 
M329.750305,243.489487 
	C330.653259,242.826019 331.556183,242.162552 332.407257,241.537201 
	C334.591064,248.004242 339.521027,243.661133 343.200623,245.270996 
	C343.200623,233.531113 343.200623,222.469650 343.200623,211.244659 
	C339.739685,211.244659 336.605377,211.244659 333.407837,211.244659 
	C333.137482,212.380615 332.892059,213.411987 332.629028,214.517181 
	C324.914734,209.403687 317.787384,209.571930 312.548828,214.853592 
	C306.922180,220.526535 306.036926,232.034454 310.691650,238.995865 
	C314.849854,245.214676 321.390961,246.948166 329.750305,243.489487 
M418.152649,266.915588 
	C410.140106,264.358978 403.785400,266.430817 399.967773,272.844421 
	C395.669220,280.066101 396.824249,290.974457 402.474884,296.521362 
	C407.608612,301.560822 414.244293,301.647736 422.331482,296.821930 
	C424.562317,302.788239 429.189575,298.945770 432.680145,299.935303 
	C432.680145,288.339020 432.680145,277.311676 432.680145,265.467041 
	C428.974335,267.550354 423.971527,263.103088 422.213501,269.532104 
	C421.025543,268.714752 419.947845,267.973236 418.152649,266.915588 
M271.718719,244.854080 
	C274.788147,244.854080 277.857544,244.854080 281.082428,244.854080 
	C281.082428,239.033264 281.054260,233.877808 281.089569,228.722778 
	C281.133759,222.269333 283.123138,219.604492 287.746460,219.693329 
	C292.182068,219.778564 293.999390,222.305557 294.029297,228.525040 
	C294.055389,233.947754 294.034760,239.370712 294.034760,244.739487 
	C297.866302,244.739487 300.961884,244.739487 303.986603,244.739487 
	C303.986603,236.692963 304.441406,228.879089 303.845001,221.146301 
	C303.353851,214.778320 298.211700,210.669479 291.746429,211.046158 
	C288.171570,211.254440 284.675537,212.815048 280.757080,213.870224 
	C280.757080,209.461899 280.757080,204.885605 280.757080,200.439514 
	C277.231995,200.439514 274.165894,200.439514 271.025848,200.439514 
	C271.025848,215.280258 271.025848,229.742035 271.718719,244.854080 
M383.330963,303.219879 
	C381.985992,304.973083 380.641022,306.726288 379.296082,308.479492 
	C378.966339,308.259430 378.636627,308.039337 378.306885,307.819275 
	C378.306885,310.519562 378.306885,313.219879 378.306885,315.887573 
	C390.595367,316.564117 393.948456,313.402863 393.965057,301.500793 
	C393.976654,293.199097 393.967682,284.897369 393.967834,276.595673 
	C393.967896,273.181244 393.967834,269.766815 393.967834,266.303040 
	C390.123566,266.303040 387.030975,266.303040 383.337830,266.303040 
	C383.337830,278.445038 383.337830,290.354492 383.330963,303.219879 
M359.264740,244.731903 
	C362.046661,244.731903 364.828613,244.731903 367.712677,244.731903 
	C367.712677,241.785080 367.712677,239.069504 367.712677,236.353928 
	C367.353760,236.656113 366.994843,236.958298 366.635895,237.260483 
	C364.835663,235.834137 361.794159,234.635986 361.481659,232.936127 
	C360.723511,228.812286 361.235138,224.455032 361.235138,220.200592 
	C363.832550,219.943726 365.762329,219.752869 367.740143,219.557266 
	C367.740143,216.661865 367.740143,214.079605 367.740143,211.336792 
	C365.546356,211.145706 363.613525,210.977356 361.437012,210.787766 
	C361.262573,208.182159 361.101227,205.771606 360.930145,203.215881 
	C357.525513,203.215881 354.446716,203.215881 351.117126,203.215881 
	C351.002228,205.746872 350.898621,208.028931 350.790497,210.410904 
	C344.589661,211.314682 347.393097,215.833786 347.750214,218.901703 
	C349.310822,220.682831 350.564636,222.571365 350.826752,224.588745 
	C351.231445,227.703766 350.972137,230.906982 350.968231,234.072769 
	C350.961670,239.359818 353.213074,243.004013 359.264740,244.731903 
M349.413818,300.022827 
	C350.816162,299.900024 352.218536,299.777252 353.840790,299.635193 
	C353.840790,293.979736 353.839691,288.839172 353.841125,283.698608 
	C353.842316,279.473419 355.966675,277.251648 360.169891,276.956604 
	C361.437500,276.867584 362.699188,276.694489 363.925598,276.563934 
	C363.925598,272.862762 363.925598,269.490936 363.925598,265.000275 
	C360.154266,266.780731 357.141632,268.202972 354.153076,269.613861 
	C352.960999,265.434753 350.889313,264.891602 343.379822,266.851562 
	C343.379822,277.725525 343.379822,288.619995 343.379822,300.022888 
	C345.255341,300.022888 346.870728,300.022888 349.413818,300.022827 
M377.967834,272.607422 
	C377.967834,270.524963 377.967834,268.442474 377.967834,266.300995 
	C374.126923,266.300995 371.034698,266.300995 367.642731,266.300995 
	C367.642731,277.562805 367.642731,288.584381 367.642731,299.700256 
	C371.163452,299.700256 374.383118,299.700256 377.500000,299.700256 
	C377.704926,299.079010 377.890656,298.776733 377.891998,298.473694 
	C377.928772,290.177368 377.946747,281.880981 377.967834,272.607422 
M369.665161,252.046402 
	C365.578674,255.733719 365.406494,260.283020 369.677521,261.806335 
	C371.776123,262.554840 375.018036,262.102753 376.861877,260.873260 
	C378.144958,260.017700 378.810211,256.600067 378.197052,254.881638 
	C376.976166,251.460022 373.813385,250.741455 369.665161,252.046402 
M387.778564,251.385620 
	C383.073212,253.198288 381.392303,255.992111 382.981445,259.358887 
	C384.478790,262.531189 388.919525,263.991364 391.838196,261.754761 
	C393.307098,260.629150 394.691498,258.285767 394.648254,256.529144 
	C394.562958,253.066483 391.848419,251.573166 387.778564,251.385620 
M195.964111,293.508942 
	C196.593323,292.318787 197.222534,291.128632 197.851746,289.938477 
	C197.461823,289.666718 197.071899,289.394958 196.681992,289.123199 
	C195.024612,290.989288 193.367233,292.855377 191.709869,294.721497 
	C192.093689,295.095673 192.477524,295.469879 192.861359,295.844055 
	C193.735947,295.232025 194.610550,294.619995 195.964111,293.508942 
z"/>
<path fill="#F1FAFE" opacity="1.000000" stroke="none" 
	d="
M94.133316,270.458801 
	C92.789482,272.531921 91.445641,274.605011 89.676880,276.783264 
	C84.092888,265.400665 82.197113,253.497360 83.925659,240.921646 
	C88.476936,207.809738 120.721680,183.313232 153.857010,187.634857 
	C170.281693,189.777008 183.703003,197.172470 195.037811,209.373077 
	C197.315552,212.798111 199.542099,215.858536 201.600037,219.028412 
	C203.506699,221.965256 205.233109,225.019104 207.038879,228.021439 
	C207.038879,228.021439 206.984360,228.008499 206.833817,228.336639 
	C206.821121,229.425156 206.958954,230.185547 207.091949,231.345459 
	C208.036530,240.162277 208.985962,248.579590 209.656967,257.267395 
	C208.586548,262.365784 207.794556,267.193695 207.002563,272.021606 
	C207.002579,272.021606 206.998032,271.996765 206.754074,271.992767 
	C206.339310,271.991180 206.168503,271.993622 205.997696,271.996063 
	C204.864822,270.995270 203.731949,269.994507 202.417236,268.738281 
	C201.599686,267.623016 201.107544,266.203125 200.304230,265.997253 
	C196.085175,264.915833 193.377533,262.489014 192.181854,258.277710 
	C191.885971,257.235596 191.171555,256.312317 190.327866,254.731796 
	C188.401672,259.820251 187.120056,265.069855 179.643890,262.792175 
	C183.435684,267.590363 183.378693,267.578888 182.110443,273.875854 
	C182.000763,274.420410 183.309021,275.250580 183.958618,275.948059 
	C182.672958,280.307373 179.821091,275.861450 177.618530,276.662842 
	C180.787537,268.905945 180.708527,266.079102 174.858643,263.998840 
	C170.337723,262.391144 164.969040,263.167419 159.630112,262.864105 
	C159.630112,267.055908 159.592148,270.197693 159.638016,273.338257 
	C159.733017,279.842865 164.788544,283.282501 170.672760,280.914215 
	C171.734955,280.486694 172.871643,280.244293 173.973938,279.916412 
	C173.962845,280.760132 173.951752,281.603851 173.553848,282.922546 
	C168.653625,284.929504 163.979919,288.612854 159.849426,281.430145 
	C160.521042,288.228760 157.483704,290.803467 152.017441,291.144012 
	C151.836334,290.547729 151.655212,289.951447 151.461548,288.887817 
	C156.422821,286.459442 158.201981,280.621613 154.740753,276.786835 
	C152.106628,273.868469 149.036758,271.343384 145.766693,268.273346 
	C141.919449,273.143677 135.437988,275.149963 134.189774,282.077759 
	C133.158432,282.099182 132.749161,282.133118 132.020782,282.132355 
	C128.088409,286.351105 123.937271,286.394806 119.416870,283.688110 
	C119.006607,283.442444 118.516434,283.330231 118.063370,283.156006 
	C118.041374,282.368591 118.019371,281.581146 118.362610,280.411621 
	C121.813431,280.169769 124.040436,284.288513 128.073547,280.902222 
	C134.349823,275.632477 131.458115,269.383392 131.986435,263.032623 
	C127.791634,263.032623 124.329597,263.001801 120.868294,263.039093 
	C113.905334,263.114105 110.735382,268.018463 113.522881,274.311981 
	C114.053345,275.509613 114.424835,276.777710 114.869675,278.013275 
	C113.657410,277.763092 112.445137,277.512909 110.943901,276.617737 
	C109.685112,273.682220 107.897079,271.356506 107.993500,269.111786 
	C108.076942,267.169067 110.299240,265.318207 112.223831,262.467285 
	C104.832069,265.167084 103.232559,260.187134 100.862663,255.473175 
	C99.563087,262.845795 94.310806,265.536499 87.261078,267.274200 
	C90.267815,268.667511 92.200569,269.563171 94.133316,270.458801 
M149.598450,260.450806 
	C151.682922,260.141449 153.767395,259.832123 154.814056,259.676788 
	C156.612778,255.835175 158.074051,252.714233 159.281998,250.134384 
	C157.874359,247.002380 156.517609,243.983627 155.205734,241.064713 
	C152.125748,239.833939 148.733200,238.478256 146.054901,237.408005 
	C142.378296,238.753937 139.105515,239.952057 136.426437,240.932816 
	C134.940460,244.260056 133.578415,247.309799 132.378876,249.995651 
	C133.739990,253.194000 135.100281,256.390442 136.148285,258.853058 
	C139.753555,260.357117 142.955765,261.693054 146.539948,263.188324 
	C147.063507,262.713043 148.037888,261.828522 149.598450,260.450806 
M105.199707,256.389313 
	C105.781464,260.001099 107.888008,261.205811 111.486382,260.941742 
	C118.781883,260.406342 121.142540,253.705765 126.684883,250.177307 
	C123.063919,246.807663 120.457588,243.067322 116.892586,241.479706 
	C114.028320,240.204147 108.500969,240.164047 106.816895,242.007385 
	C103.671402,245.450302 101.649879,250.578323 105.199707,256.389313 
M169.935425,254.571182 
	C176.499939,262.894989 185.821655,262.447632 188.017731,252.016266 
	C189.202667,246.387756 184.947571,240.206299 179.419189,240.148376 
	C172.217789,240.072906 170.249695,246.669708 165.124619,250.171112 
	C166.972549,251.835602 168.202347,252.943314 169.935425,254.571182 
M156.135666,215.809509 
	C155.956192,215.016418 156.046814,213.929779 155.554443,213.476715 
	C151.639038,209.874069 140.510254,209.691956 136.509354,213.214020 
	C135.787506,213.849518 135.540726,215.196991 135.373276,216.262695 
	C134.044708,224.718338 141.770676,226.719742 145.975754,232.089966 
	C149.777420,226.575607 157.610062,224.855240 156.135666,215.809509 
M113.405464,226.062241 
	C110.990326,229.552780 111.760147,232.229965 114.991585,234.946640 
	C120.244850,239.363068 126.021492,236.164154 132.081497,237.285721 
	C132.081497,232.708389 132.967514,228.476242 131.799576,224.918335 
	C130.874573,222.100464 127.255173,218.011963 125.141060,218.188385 
	C120.746971,218.555130 115.420151,219.682053 113.405464,226.062241 
M161.496506,221.346176 
	C157.857880,226.323013 160.205887,231.660706 159.819977,237.183105 
	C163.196167,237.183105 165.838516,237.184113 168.480850,237.182922 
	C178.981110,237.178207 181.965042,232.424255 177.056351,223.521454 
	C174.273804,218.474792 166.413132,217.039963 161.496506,221.346176 
M159.375458,215.097382 
	C159.537521,216.005173 159.699585,216.912964 160.140045,219.380188 
	C163.904221,211.077438 169.007401,215.834457 174.777359,217.123093 
	C170.830185,211.777679 169.508896,207.542587 175.002533,204.245178 
	C172.045776,203.340942 169.304474,203.216614 167.685043,201.805130 
	C166.087753,200.412933 165.625931,197.717957 164.665955,195.594559 
	C162.747681,202.824203 157.733536,206.038086 151.155121,207.506149 
	C153.704910,210.814621 159.508850,208.826797 159.375458,215.097382 
M120.815254,209.487259 
	C119.920364,211.823975 119.025475,214.160675 118.130585,216.497391 
	C123.325272,213.999878 127.768036,212.647537 132.150803,218.470276 
	C129.725555,210.310913 136.506699,210.438629 141.423798,207.472824 
	C133.501144,206.226196 129.187424,202.516708 127.291107,195.653656 
	C125.497345,200.996582 123.284340,205.057358 115.997200,203.058731 
	C118.272682,205.761826 119.532257,207.258102 120.815254,209.487259 
M103.708282,240.073730 
	C106.135056,238.687881 108.561821,237.302017 111.157631,235.819641 
	C106.183533,233.094574 107.784462,228.744400 111.653091,222.963943 
	C105.405060,225.833435 100.557961,228.182404 96.175774,221.884903 
	C98.842484,230.051834 92.451538,230.375961 86.815407,232.935150 
	C95.074059,234.314301 99.327652,238.158951 100.819252,246.058578 
	C102.111168,243.333099 102.727623,242.032608 103.708282,240.073730 
M197.046188,235.516647 
	C199.162521,234.630386 201.278839,233.744125 203.688614,232.734985 
	C195.858276,228.661728 195.858276,228.661728 194.499939,222.181870 
	C190.946991,228.210724 186.305984,225.683914 180.537918,223.392120 
	C183.735107,228.994034 185.394135,233.289154 179.534256,237.128555 
	C187.180817,235.117371 188.403824,240.453323 190.084030,244.861176 
	C192.330231,241.627258 194.346771,238.723999 197.046188,235.516647 
M163.314636,247.182907 
	C165.624039,245.152725 167.933456,243.122543 170.242859,241.092346 
	C167.842361,240.097763 166.174927,239.889908 164.585709,240.153595 
	C162.841339,240.443024 161.169067,241.167023 159.465378,241.701630 
	C160.495850,243.542450 161.526321,245.383255 163.314636,247.182907 
M159.443481,257.646545 
	C162.091461,262.541138 166.173218,258.867096 170.195602,258.932190 
	C169.338089,257.112671 167.600204,256.407013 166.290421,255.226395 
	C162.455826,251.770035 161.818695,251.862610 159.443481,257.646545 
M139.836166,263.122803 
	C138.438934,263.122803 137.041718,263.122803 135.661774,263.122803 
	C135.661774,266.727753 135.661774,269.700684 135.661774,273.594238 
	C137.899078,271.523468 139.363022,269.990265 141.008606,268.686310 
	C143.620956,266.616302 143.049316,264.965698 139.836166,263.122803 
M138.249542,237.251129 
	C139.955353,236.363831 141.661163,235.476532 143.899521,234.312241 
	C140.817291,231.368454 138.525940,229.180023 136.234604,226.991608 
	C136.358566,230.725052 132.762985,234.657700 138.249542,237.251129 
M126.183815,245.478638 
	C127.441147,245.876556 129.547760,246.912964 129.810638,246.563263 
	C131.029510,244.941940 131.736847,242.936050 132.879684,240.538574 
	C128.456146,240.538574 125.283569,240.538574 120.980339,240.538574 
	C123.052856,242.507080 124.340988,243.730560 126.183815,245.478638 
M131.030594,259.844971 
	C133.672867,256.208130 131.614548,254.365479 128.976135,252.963455 
	C126.502396,255.277359 124.330521,257.308899 121.513031,259.944336 
	C124.966507,259.944336 127.562157,259.944336 131.030594,259.844971 
M156.151016,232.666229 
	C156.073486,230.972763 155.995972,229.279312 155.881958,226.788651 
	C152.989182,229.485092 150.774826,231.549149 147.417374,234.678711 
	C150.507187,235.730774 152.557770,236.569077 154.690628,236.973709 
	C154.950333,237.022980 155.652466,234.740295 156.151016,232.666229 
M153.769928,263.070038 
	C152.003983,263.846893 150.238037,264.623779 147.813980,265.690155 
	C150.845642,268.588348 153.032303,270.678711 155.218964,272.769104 
	C155.705994,272.568542 156.193024,272.367981 156.680054,272.167389 
	C155.992767,269.146088 155.305496,266.124786 153.769928,263.070038 
z"/>
<path fill="#2B97EB" opacity="1.000000" stroke="none" 
	d="
M248.541534,299.946838 
	C241.122299,299.969116 234.153259,299.969116 226.766739,299.969116 
	C226.766739,285.785736 226.766739,271.809784 226.766739,257.342896 
	C233.529678,257.342896 240.134842,257.147400 246.722244,257.405334 
	C251.903870,257.608215 256.774719,259.133759 258.791809,264.585815 
	C260.843445,270.131165 258.932007,274.644440 253.616898,278.113403 
	C258.914856,281.274567 261.619659,285.460632 260.066254,291.418976 
	C258.593872,297.066528 254.258423,299.138458 248.541534,299.946838 
M239.609695,282.146332 
	C234.106873,284.249268 238.225922,288.306976 236.921234,291.545654 
	C238.693741,291.644409 239.679581,291.802094 240.649963,291.735199 
	C244.430862,291.474670 249.821503,292.824860 249.729080,286.914948 
	C249.639206,281.166351 244.336365,282.367706 239.609695,282.146332 
M246.303070,274.116119 
	C247.044312,272.211334 248.955627,269.656464 248.321793,268.515656 
	C245.745255,263.878326 241.214508,266.378693 237.330688,266.053497 
	C237.330688,269.129974 237.330688,271.798462 237.330688,274.873718 
	C240.338364,274.685730 242.928680,274.523834 246.303070,274.116119 
z"/>
<path fill="#18BAF2" opacity="1.000000" stroke="none" 
	d="
M194.913071,209.056213 
	C183.703003,197.172470 170.281693,189.777008 153.857010,187.634857 
	C120.721680,183.313232 88.476936,207.809738 83.925659,240.921646 
	C82.197113,253.497360 84.092888,265.400665 89.510948,277.152344 
	C93.384041,285.994354 99.168045,292.903656 106.702393,299.227753 
	C108.051727,300.250488 108.933838,300.871613 109.815948,301.492767 
	C114.577599,304.122833 119.339264,306.752899 124.723412,309.656372 
	C126.566551,310.246094 127.787201,310.562439 129.007858,310.878723 
	C130.633621,311.319763 132.259369,311.760803 134.449661,312.502472 
	C136.679916,313.138153 138.345612,313.473206 140.011322,313.808258 
	C140.175003,313.852173 140.338699,313.896057 140.671692,314.208496 
	C140.560486,314.929474 140.279984,315.381866 139.999481,315.834259 
	C106.018890,314.925568 77.416748,283.996094 78.738869,248.376450 
	C79.784401,220.208374 93.554993,199.404816 119.651115,188.423904 
	C145.404984,177.586990 169.211273,182.566986 190.158539,200.993423 
	C192.253784,202.836502 193.996521,205.080307 195.888290,207.719223 
	C195.553513,208.552261 195.233292,208.804230 194.913071,209.056213 
z"/>
<path fill="#2795EA" opacity="1.000000" stroke="none" 
	d="
M298.104034,283.997559 
	C298.104065,289.464844 298.104065,294.432892 298.104065,300.052216 
	C294.167908,298.927521 289.497986,302.860626 287.336731,296.788208 
	C278.984619,301.986298 271.416321,301.476105 266.423950,295.368530 
	C260.905273,288.617096 261.071655,276.627380 266.771240,270.341034 
	C271.898865,264.685547 279.455658,264.309937 287.568787,269.678131 
	C287.568787,264.862579 287.568787,260.358490 287.568787,255.456619 
	C291.143219,255.456619 294.209167,255.456619 298.104004,255.456619 
	C298.104004,264.677765 298.104004,274.088043 298.104034,283.997559 
M275.410248,276.837524 
	C274.613434,278.946930 273.254700,281.024384 273.132568,283.172150 
	C272.846588,288.200897 276.433014,291.572662 281.050629,291.224762 
	C285.250519,290.908295 288.192688,287.041534 287.788025,282.378204 
	C287.240326,276.066406 281.312286,272.583649 275.410248,276.837524 
z"/>
<path fill="#2A96EB" opacity="1.000000" stroke="none" 
	d="
M247.600433,235.767639 
	C249.198242,235.182968 250.883316,235.009949 251.555130,234.093872 
	C255.318588,228.961975 260.516083,230.320908 265.540497,230.449326 
	C264.843018,239.004150 256.576111,245.235764 246.131271,245.273117 
	C234.811188,245.313599 226.018692,237.672470 224.962585,226.876404 
	C223.715851,214.132050 230.251297,204.490585 241.637329,202.276855 
	C252.911560,200.084869 262.979218,205.878891 265.917786,216.663895 
	C260.963104,216.631683 256.304108,218.471786 251.957581,213.633987 
	C248.222992,209.477280 240.296829,211.421432 237.232239,216.326981 
	C231.807434,225.010559 236.998947,235.151382 247.600433,235.767639 
z"/>
<path fill="#2A96EB" opacity="1.000000" stroke="none" 
	d="
M329.567566,266.075317 
	C332.307190,266.069580 334.626923,266.069580 337.379547,266.069580 
	C337.379547,277.334076 337.379547,288.349487 337.383698,299.367371 
	C330.068573,300.879211 328.191589,300.506104 326.480560,297.201721 
	C317.572784,302.055115 310.555084,301.306030 305.607819,294.973663 
	C300.270935,288.142578 300.745026,276.104156 306.591064,270.006897 
	C311.811310,264.562317 319.084839,264.293427 326.253235,269.163788 
	C327.234344,268.118805 328.190979,267.099915 329.567566,266.075317 
M320.372345,274.896484 
	C314.272614,275.680603 311.816010,279.016663 312.855835,285.103882 
	C313.616516,289.556976 317.106476,292.029297 321.476654,291.085083 
	C325.010681,290.321503 326.759338,287.906281 327.056244,284.415771 
	C327.445801,279.836090 326.190735,276.216675 320.372345,274.896484 
z"/>
<path fill="#2795EA" opacity="1.000000" stroke="none" 
	d="
M329.434875,243.684525 
	C321.390961,246.948166 314.849854,245.214676 310.691650,238.995865 
	C306.036926,232.034454 306.922180,220.526535 312.548828,214.853592 
	C317.787384,209.571930 324.914734,209.403687 332.629028,214.517181 
	C332.892059,213.411987 333.137482,212.380615 333.407837,211.244659 
	C336.605377,211.244659 339.739685,211.244659 343.200623,211.244659 
	C343.200623,222.469650 343.200623,233.531113 343.200623,245.270996 
	C339.521027,243.661133 334.591064,248.004242 332.407257,241.537201 
	C331.556183,242.162552 330.653259,242.826019 329.434875,243.684525 
M331.691956,233.051682 
	C334.299408,226.445480 332.175232,220.675430 326.808960,219.961273 
	C323.064270,219.462921 320.272064,220.903549 318.946167,224.535355 
	C317.507416,228.476364 317.943512,232.289566 321.425873,234.858414 
	C324.774170,237.328339 328.277863,236.901398 331.691956,233.051682 
z"/>
<path fill="#2795EA" opacity="1.000000" stroke="none" 
	d="
M418.511414,267.073669 
	C419.947845,267.973236 421.025543,268.714752 422.213501,269.532104 
	C423.971527,263.103088 428.974335,267.550354 432.680145,265.467041 
	C432.680145,277.311676 432.680145,288.339020 432.680145,299.935303 
	C429.189575,298.945770 424.562317,302.788239 422.331482,296.821930 
	C414.244293,301.647736 407.608612,301.560822 402.474884,296.521362 
	C396.824249,290.974457 395.669220,280.066101 399.967773,272.844421 
	C403.785400,266.430817 410.140106,264.358978 418.511414,267.073669 
M408.152344,284.994965 
	C409.179230,288.687866 411.309326,291.801361 415.356598,291.046906 
	C417.820831,290.587524 421.310760,288.377441 421.805176,286.338989 
	C422.510406,283.431122 421.612335,279.509277 419.984833,276.903900 
	C419.063263,275.428619 415.062866,274.809082 412.894989,275.410645 
	C408.870361,276.527405 407.773621,280.205963 408.152344,284.994965 
z"/>
<path fill="#2594EA" opacity="1.000000" stroke="none" 
	d="
M271.372284,244.528946 
	C271.025848,229.742035 271.025848,215.280258 271.025848,200.439514 
	C274.165894,200.439514 277.231995,200.439514 280.757080,200.439514 
	C280.757080,204.885605 280.757080,209.461899 280.757080,213.870224 
	C284.675537,212.815048 288.171570,211.254440 291.746429,211.046158 
	C298.211700,210.669479 303.353851,214.778320 303.845001,221.146301 
	C304.441406,228.879089 303.986603,236.692963 303.986603,244.739487 
	C300.961884,244.739487 297.866302,244.739487 294.034760,244.739487 
	C294.034760,239.370712 294.055389,233.947754 294.029297,228.525040 
	C293.999390,222.305557 292.182068,219.778564 287.746460,219.693329 
	C283.123138,219.604492 281.133759,222.269333 281.089569,228.722778 
	C281.054260,233.877808 281.082428,239.033264 281.082428,244.854080 
	C277.857544,244.854080 274.788147,244.854080 271.372284,244.528946 
z"/>
<path fill="#2E98EB" opacity="1.000000" stroke="none" 
	d="
M383.334412,302.741882 
	C383.337830,290.354492 383.337830,278.445038 383.337830,266.303040 
	C387.030975,266.303040 390.123566,266.303040 393.967834,266.303040 
	C393.967834,269.766815 393.967896,273.181244 393.967834,276.595673 
	C393.967682,284.897369 393.976654,293.199097 393.965057,301.500793 
	C393.948456,313.402863 390.595367,316.564117 378.306885,315.887573 
	C378.306885,313.219879 378.306885,310.519562 378.306885,307.819275 
	C378.636627,308.039337 378.966339,308.259430 379.296082,308.479492 
	C380.641022,306.726288 381.985992,304.973083 383.334412,302.741882 
z"/>
<path fill="#2594EA" opacity="1.000000" stroke="none" 
	d="
M358.870758,244.607315 
	C353.213074,243.004013 350.961670,239.359818 350.968231,234.072769 
	C350.972137,230.906982 351.231445,227.703766 350.826752,224.588745 
	C350.564636,222.571365 349.310822,220.682831 347.750214,218.901703 
	C347.393097,215.833786 344.589661,211.314682 350.790497,210.410904 
	C350.898621,208.028931 351.002228,205.746872 351.117126,203.215881 
	C354.446716,203.215881 357.525513,203.215881 360.930145,203.215881 
	C361.101227,205.771606 361.262573,208.182159 361.437012,210.787766 
	C363.613525,210.977356 365.546356,211.145706 367.740143,211.336792 
	C367.740143,214.079605 367.740143,216.661865 367.740143,219.557266 
	C365.762329,219.752869 363.832550,219.943726 361.235138,220.200592 
	C361.235138,224.455032 360.723511,228.812286 361.481659,232.936127 
	C361.794159,234.635986 364.835663,235.834137 366.635895,237.260483 
	C366.994843,236.958298 367.353760,236.656113 367.712677,236.353928 
	C367.712677,239.069504 367.712677,241.785080 367.712677,244.731903 
	C364.828613,244.731903 362.046661,244.731903 358.870758,244.607315 
z"/>
<path fill="#2E98EB" opacity="1.000000" stroke="none" 
	d="
M348.949951,300.022858 
	C346.870728,300.022888 345.255341,300.022888 343.379822,300.022888 
	C343.379822,288.619995 343.379822,277.725525 343.379822,266.851562 
	C350.889313,264.891602 352.960999,265.434753 354.153076,269.613861 
	C357.141632,268.202972 360.154266,266.780731 363.925598,265.000275 
	C363.925598,269.490936 363.925598,272.862762 363.925598,276.563934 
	C362.699188,276.694489 361.437500,276.867584 360.169891,276.956604 
	C355.966675,277.251648 353.842316,279.473419 353.841125,283.698608 
	C353.839691,288.839172 353.840790,293.979736 353.840790,299.635193 
	C352.218536,299.777252 350.816162,299.900024 348.949951,300.022858 
z"/>
<path fill="#2E98EB" opacity="1.000000" stroke="none" 
	d="
M377.967834,273.096008 
	C377.946747,281.880981 377.928772,290.177368 377.891998,298.473694 
	C377.890656,298.776733 377.704926,299.079010 377.500000,299.700256 
	C374.383118,299.700256 371.163452,299.700256 367.642731,299.700256 
	C367.642731,288.584381 367.642731,277.562805 367.642731,266.300995 
	C371.034698,266.300995 374.126923,266.300995 377.967834,266.300995 
	C377.967834,268.442474 377.967834,270.524963 377.967834,273.096008 
z"/>
<path fill="#0B97F0" opacity="1.000000" stroke="none" 
	d="
M134.811859,282.090210 
	C135.437988,275.149963 141.919449,273.143677 145.766693,268.273346 
	C149.036758,271.343384 152.106628,273.868469 154.740753,276.786835 
	C158.201981,280.621613 156.422821,286.459442 151.203705,288.701324 
	C148.568161,289.304993 146.177872,289.627808 143.202576,289.677521 
	C140.068680,288.361359 137.519806,287.318268 134.642731,286.099609 
	C133.884094,286.113403 133.453644,286.302765 133.038773,286.332764 
	C133.063644,285.958679 133.044037,285.746643 133.509796,285.645386 
	C134.286636,284.532440 134.549255,283.311310 134.811859,282.090210 
z"/>
<path fill="#0796F0" opacity="1.000000" stroke="none" 
	d="
M174.187988,279.688782 
	C172.871643,280.244293 171.734955,280.486694 170.672760,280.914215 
	C164.788544,283.282501 159.733017,279.842865 159.638016,273.338257 
	C159.592148,270.197693 159.630112,267.055908 159.630112,262.864105 
	C164.969040,263.167419 170.337723,262.391144 174.858643,263.998840 
	C180.708527,266.079102 180.787537,268.905945 177.236633,276.664124 
	C176.268173,277.831604 175.335098,278.646393 174.187988,279.688782 
z"/>
<path fill="#0796F0" opacity="1.000000" stroke="none" 
	d="
M115.122543,278.197266 
	C114.424835,276.777710 114.053345,275.509613 113.522881,274.311981 
	C110.735382,268.018463 113.905334,263.114105 120.868294,263.039093 
	C124.329597,263.001801 127.791634,263.032623 131.986435,263.032623 
	C131.458115,269.383392 134.349823,275.632477 128.073547,280.902222 
	C124.040436,284.288513 121.813431,280.169769 118.362961,280.017700 
	C117.123856,279.464325 116.249634,278.922791 115.122543,278.197266 
z"/>
<path fill="#129AF0" opacity="1.000000" stroke="none" 
	d="
M151.855164,291.386566 
	C157.483704,290.803467 160.521042,288.228760 159.849426,281.430145 
	C163.979919,288.612854 168.653625,284.929504 173.514206,283.342712 
	C173.759338,283.773346 173.774841,284.327637 173.537109,284.733673 
	C171.132431,288.840912 169.432022,292.841492 175.942245,295.942932 
	C175.586700,296.290649 175.231171,296.638367 174.875626,296.986084 
	C173.191116,296.986084 171.506607,296.986084 169.092209,297.086670 
	C167.922241,298.125793 167.482162,299.064331 167.042084,300.002869 
	C166.212845,301.545227 165.383606,303.087585 164.368835,304.975037 
	C163.780731,303.924133 163.206055,303.271271 163.031311,302.524780 
	C161.819717,297.349365 158.540405,294.437042 153.431488,293.294922 
	C152.761307,293.145111 152.268066,292.203827 151.855164,291.386566 
z"/>
<path fill="#129AF0" opacity="1.000000" stroke="none" 
	d="
M94.530304,270.607300 
	C92.200569,269.563171 90.267815,268.667511 87.261078,267.274200 
	C94.310806,265.536499 99.563087,262.845795 100.862663,255.473175 
	C103.232559,260.187134 104.832069,265.167084 112.223831,262.467285 
	C110.299240,265.318207 108.076942,267.169067 107.993500,269.111786 
	C107.897079,271.356506 109.685112,273.682220 110.741486,276.298004 
	C108.455925,275.743561 106.083794,274.863861 103.021049,273.816345 
	C101.449913,274.388916 100.569389,275.129242 99.688866,275.869598 
	C98.807358,276.517303 97.925850,277.165009 96.971481,277.866241 
	C96.251144,275.360626 95.589218,273.058228 94.530304,270.607300 
z"/>
<path fill="#109AF0" opacity="1.000000" stroke="none" 
	d="
M132.995544,285.537262 
	C133.044037,285.746643 133.063644,285.958679 132.743332,286.479126 
	C133.283585,287.722931 134.134857,288.660980 135.301270,289.789368 
	C137.085327,290.990265 138.554260,292.000854 140.023193,293.011414 
	C140.023193,293.011414 140.004517,292.996674 139.712189,292.992584 
	C138.928085,293.276154 138.436340,293.563812 137.944595,293.851501 
	C131.144699,294.004028 129.727158,299.544189 127.468964,305.196564 
	C124.998566,300.323273 124.256622,293.908234 116.527748,296.417999 
	C116.935875,295.834137 117.344009,295.250275 118.185272,294.246399 
	C119.166702,292.528931 119.715004,291.231476 120.263306,289.933990 
	C119.538109,287.912231 118.812904,285.890442 118.075531,283.512329 
	C118.516434,283.330231 119.006607,283.442444 119.416870,283.688110 
	C123.937271,286.394806 128.088409,286.351105 131.989136,282.579529 
	C132.516266,283.886719 132.755905,284.711975 132.995544,285.537262 
z"/>
<path fill="#109AF0" opacity="1.000000" stroke="none" 
	d="
M183.962799,275.966644 
	C183.309021,275.250580 182.000763,274.420410 182.110443,273.875854 
	C183.378693,267.578888 183.435684,267.590363 179.643890,262.792175 
	C187.120056,265.069855 188.401672,259.820251 190.327866,254.731796 
	C191.171555,256.312317 191.885971,257.235596 192.181854,258.277710 
	C193.377533,262.489014 196.085175,264.915833 200.304230,265.997253 
	C201.107544,266.203125 201.599686,267.623016 202.044525,268.707336 
	C196.652893,269.237793 194.764450,272.406525 195.306778,278.125183 
	C193.291977,276.462219 192.084625,275.465729 190.264801,274.086975 
	C188.635529,274.068512 187.618729,274.432343 186.601929,274.796143 
	C186.218185,274.869720 185.834427,274.943298 184.992691,275.197693 
	C184.251236,275.486633 184.052719,275.681427 183.939163,275.962799 
	C183.939163,275.962799 183.966980,275.985229 183.962799,275.966644 
z"/>
<path fill="#2E98EB" opacity="1.000000" stroke="none" 
	d="
M370.014893,251.926300 
	C373.813385,250.741455 376.976166,251.460022 378.197052,254.881638 
	C378.810211,256.600067 378.144958,260.017700 376.861877,260.873260 
	C375.018036,262.102753 371.776123,262.554840 369.677521,261.806335 
	C365.406494,260.283020 365.578674,255.733719 370.014893,251.926300 
z"/>
<path fill="#2E98EB" opacity="1.000000" stroke="none" 
	d="
M388.152039,251.350983 
	C391.848419,251.573166 394.562958,253.066483 394.648254,256.529144 
	C394.691498,258.285767 393.307098,260.629150 391.838196,261.754761 
	C388.919525,263.991364 384.478790,262.531189 382.981445,259.358887 
	C381.392303,255.992111 383.073212,253.198288 388.152039,251.350983 
z"/>
<path fill="#F1FAFE" opacity="1.000000" stroke="none" 
	d="
M170.984039,309.977356 
	C171.382828,309.297821 171.616638,308.371613 172.206192,307.977295 
	C177.542007,304.408325 182.921997,300.903900 188.348236,297.474213 
	C188.880005,297.138092 189.808228,297.429260 191.286942,297.429260 
	C185.566193,303.916595 178.783249,307.385376 171.289429,310.107269 
	C170.998947,309.998413 170.984039,309.977356 170.984039,309.977356 
z"/>
<path fill="#39C1F3" opacity="1.000000" stroke="none" 
	d="
M195.037811,209.373077 
	C195.233292,208.804230 195.553513,208.552261 196.015350,208.024490 
	C199.846649,214.248627 203.536362,220.748566 207.132477,227.634979 
	C205.233109,225.019104 203.506699,221.965256 201.600037,219.028412 
	C199.542099,215.858536 197.315552,212.798111 195.037811,209.373077 
z"/>
<path fill="#7AD7F7" opacity="1.000000" stroke="none" 
	d="
M209.935394,256.996887 
	C208.985962,248.579590 208.036530,240.162277 207.451294,231.347076 
	C208.055145,230.953781 208.294800,230.958389 208.534454,230.963013 
	C209.369263,237.772980 210.259857,244.576904 211.001266,251.397018 
	C211.196411,253.192245 210.930115,255.037659 210.664429,257.240723 
	C210.246841,257.441223 210.074249,257.233032 209.935394,256.996887 
z"/>
<path fill="#CAF0FC" opacity="1.000000" stroke="none" 
	d="
M209.656967,257.267395 
	C210.074249,257.233032 210.246841,257.441223 210.639252,257.693970 
	C209.767212,262.400574 208.709076,267.034668 207.326752,271.845154 
	C207.794556,267.193695 208.586548,262.365784 209.656967,257.267395 
z"/>
<path fill="#F1FAFE" opacity="1.000000" stroke="none" 
	d="
M140.357727,292.968445 
	C138.554260,292.000854 137.085327,290.990265 135.302765,289.381531 
	C134.983047,287.947266 134.976990,287.111237 134.970917,286.275177 
	C137.519806,287.318268 140.068680,288.361359 142.865662,289.668182 
	C142.306595,290.929779 141.499435,291.927612 140.357727,292.968445 
z"/>
<path fill="#F1FAFE" opacity="1.000000" stroke="none" 
	d="
M171.007446,310.007751 
	C170.218781,313.248474 168.052643,312.936005 165.075012,312.014526 
	C164.311279,311.897491 164.148972,311.845673 163.986679,311.793884 
	C165.030777,307.910980 167.660736,308.770081 170.645859,309.828674 
	C170.984039,309.977356 170.998947,309.998413 171.007446,310.007751 
z"/>
<path fill="#F1FAFE" opacity="1.000000" stroke="none" 
	d="
M195.724625,293.758453 
	C194.610550,294.619995 193.735947,295.232025 192.861359,295.844055 
	C192.477524,295.469879 192.093689,295.095673 191.709869,294.721497 
	C193.367233,292.855377 195.024612,290.989288 196.681992,289.123199 
	C197.071899,289.394958 197.461823,289.666718 197.851746,289.938477 
	C197.222534,291.128632 196.593323,292.318787 195.724625,293.758453 
z"/>
<path fill="#39C1F3" opacity="1.000000" stroke="none" 
	d="
M163.572449,311.824951 
	C164.148972,311.845673 164.311279,311.897491 164.727631,311.977051 
	C162.250381,313.009613 159.519104,314.014435 156.388412,314.688293 
	C155.981567,313.972290 155.974136,313.587219 155.966705,313.202179 
	C158.363876,312.753479 160.761047,312.304749 163.572449,311.824951 
z"/>
<path fill="#18BAF2" opacity="1.000000" stroke="none" 
	d="
M155.571075,313.170959 
	C155.974136,313.587219 155.981567,313.972290 155.987915,314.646240 
	C153.909561,315.260986 151.832306,315.586823 149.243042,315.630310 
	C148.477402,314.872284 148.223755,314.396545 147.970108,313.920837 
	C150.371902,313.660461 152.773682,313.400116 155.571075,313.170959 
z"/>
<path fill="#CAF0FC" opacity="1.000000" stroke="none" 
	d="
M200.884949,283.911194 
	C201.738464,282.066467 202.591995,280.221771 203.723480,278.189026 
	C204.001434,278.001038 204.021408,278.017395 204.021408,278.017395 
	C203.289261,279.990326 202.557129,281.963226 201.418884,283.976257 
	C201.012772,284.016388 200.884949,283.911194 200.884949,283.911194 
z"/>
<path fill="#39C1F3" opacity="1.000000" stroke="none" 
	d="
M140.275146,315.956116 
	C140.279984,315.381866 140.560486,314.929474 140.925400,314.224274 
	C141.752426,313.873322 142.495026,313.775177 143.606018,314.128174 
	C143.979965,315.039520 143.985535,315.499634 143.991119,315.959778 
	C142.844360,315.999207 141.697601,316.038605 140.275146,315.956116 
z"/>
<path fill="#F1FAFE" opacity="1.000000" stroke="none" 
	d="
M139.910583,313.440857 
	C138.345612,313.473206 136.679916,313.138153 134.812210,312.477539 
	C136.343414,312.459137 138.076630,312.766296 139.910583,313.440857 
z"/>
<path fill="#F1FAFE" opacity="1.000000" stroke="none" 
	d="
M119.879837,290.001007 
	C119.715004,291.231476 119.166702,292.528931 118.323868,293.948730 
	C118.518341,292.736725 119.007355,291.402374 119.879837,290.001007 
z"/>
<path fill="#F1FAFE" opacity="1.000000" stroke="none" 
	d="
M128.959808,310.526794 
	C127.787201,310.562439 126.566551,310.246094 125.086311,309.750763 
	C126.613647,306.892334 127.831802,308.065552 128.959808,310.526794 
z"/>
<path fill="#39C1F3" opacity="1.000000" stroke="none" 
	d="
M147.648132,313.840149 
	C148.223755,314.396545 148.477402,314.872284 148.846893,315.592834 
	C148.132187,315.957611 147.301666,316.077545 146.243378,315.734924 
	C146.016510,314.822296 146.017410,314.372223 146.018311,313.922150 
	C146.454254,313.867920 146.890213,313.813660 147.648132,313.840149 
z"/>
<path fill="#F1FAFE" opacity="1.000000" stroke="none" 
	d="
M167.372726,299.954742 
	C167.482162,299.064331 167.922241,298.125793 168.687622,297.172119 
	C168.576416,298.073547 168.139877,298.990082 167.372726,299.954742 
z"/>
<path fill="#F1FAFE" opacity="1.000000" stroke="none" 
	d="
M186.958893,274.951019 
	C187.618729,274.432343 188.635529,274.068512 189.910355,273.917816 
	C189.217545,274.455933 188.266693,274.780914 186.958893,274.951019 
z"/>
<path fill="#F1FAFE" opacity="1.000000" stroke="none" 
	d="
M109.833313,301.097504 
	C108.933838,300.871613 108.051727,300.250488 107.012726,299.345215 
	C107.854111,299.608124 108.852386,300.155182 109.833313,301.097504 
z"/>
<path fill="#F1FAFE" opacity="1.000000" stroke="none" 
	d="
M100.071503,275.902405 
	C100.569389,275.129242 101.449913,274.388916 102.663559,273.788574 
	C102.149155,274.597473 101.301643,275.266327 100.071503,275.902405 
z"/>
<path fill="#18BAF2" opacity="1.000000" stroke="none" 
	d="
M145.679840,313.861176 
	C146.017410,314.372223 146.016510,314.822296 146.013657,315.609680 
	C145.561356,315.994843 145.110992,316.042725 144.325882,316.025177 
	C143.985535,315.499634 143.979965,315.039520 143.973328,314.233490 
	C144.428635,313.858490 144.885010,313.829346 145.679840,313.861176 
z"/>
<path fill="#F1FAFE" opacity="1.000000" stroke="none" 
	d="
M138.101929,294.101379 
	C138.436340,293.563812 138.928085,293.276154 139.714264,293.003174 
	C139.425568,293.462341 138.842422,293.906799 138.101929,294.101379 
z"/>
<path fill="#39C1F3" opacity="1.000000" stroke="none" 
	d="
M208.428589,230.617279 
	C208.294800,230.958389 208.055145,230.953781 207.456146,230.947540 
	C206.958954,230.185547 206.821121,229.425156 206.841034,228.309570 
	C207.440109,228.726761 207.881424,229.499146 208.428589,230.617279 
z"/>
<path fill="#CAF0FC" opacity="1.000000" stroke="none" 
	d="
M205.994568,272.371338 
	C206.168503,271.993622 206.339310,271.991180 206.766373,271.995911 
	C206.859283,272.867249 206.695923,273.731476 206.266281,274.797852 
	C206.000000,275.000000 205.996948,274.997589 205.996948,274.997589 
	C205.995102,274.247253 205.993271,273.496948 205.994568,272.371338 
z"/>
<path fill="#CAF0FC" opacity="1.000000" stroke="none" 
	d="
M201.074463,284.071564 
	C200.943863,284.557983 200.751556,284.989258 200.559265,285.420502 
	C200.533249,285.019714 200.507248,284.618958 200.683105,284.064697 
	C200.884949,283.911194 201.012772,284.016388 201.074463,284.071564 
z"/>
<path fill="#CAF0FC" opacity="1.000000" stroke="none" 
	d="
M204.970215,276.976135 
	C205.139709,276.416687 205.309189,275.857269 205.737823,275.147705 
	C205.996948,274.997589 206.000000,275.000000 206.001526,275.001221 
	C205.842010,275.566254 205.681000,276.130096 205.258972,276.846497 
	C204.997971,276.999084 204.970215,276.976135 204.970215,276.976135 
z"/>
<path fill="#F1FAFE" opacity="1.000000" stroke="none" 
	d="
M184.144745,275.926575 
	C184.052719,275.681427 184.251236,275.486633 184.747238,275.360779 
	C184.825912,275.602692 184.622757,275.785126 184.144745,275.926575 
z"/>
<path fill="#CAF0FC" opacity="1.000000" stroke="none" 
	d="
M203.993500,277.991364 
	C204.069244,277.649658 204.247208,277.379852 204.744843,277.074188 
	C204.970215,276.976135 204.997971,276.999084 205.009918,277.013062 
	C204.935394,277.359589 204.754929,277.629181 204.250916,277.926575 
	C204.021408,278.017395 204.001434,278.001038 203.993500,277.991364 
z"/>
<path fill="#0997F0" opacity="1.000000" stroke="none" 
	d="
M149.305359,260.697388 
	C148.037888,261.828522 147.063507,262.713043 146.539948,263.188324 
	C142.955765,261.693054 139.753555,260.357117 136.148285,258.853058 
	C135.100281,256.390442 133.739990,253.194000 132.378876,249.995651 
	C133.578415,247.309799 134.940460,244.260056 136.426437,240.932816 
	C139.105515,239.952057 142.378296,238.753937 146.054901,237.408005 
	C148.733200,238.478256 152.125748,239.833939 155.205734,241.064713 
	C156.517609,243.983627 157.874359,247.002380 159.281998,250.134384 
	C158.074051,252.714233 156.612778,255.835175 154.814056,259.676788 
	C153.767395,259.832123 151.682922,260.141449 149.305359,260.697388 
z"/>
<path fill="#0B97F0" opacity="1.000000" stroke="none" 
	d="
M105.155441,255.993225 
	C101.649879,250.578323 103.671402,245.450302 106.816895,242.007385 
	C108.500969,240.164047 114.028320,240.204147 116.892586,241.479706 
	C120.457588,243.067322 123.063919,246.807663 126.684883,250.177307 
	C121.142540,253.705765 118.781883,260.406342 111.486382,260.941742 
	C107.888008,261.205811 105.781464,260.001099 105.155441,255.993225 
z"/>
<path fill="#0B97F0" opacity="1.000000" stroke="none" 
	d="
M169.683777,254.311096 
	C168.202347,252.943314 166.972549,251.835602 165.124619,250.171112 
	C170.249695,246.669708 172.217789,240.072906 179.419189,240.148376 
	C184.947571,240.206299 189.202667,246.387756 188.017731,252.016266 
	C185.821655,262.447632 176.499939,262.894989 169.683777,254.311096 
z"/>
<path fill="#0B97F0" opacity="1.000000" stroke="none" 
	d="
M156.137451,216.241531 
	C157.610062,224.855240 149.777420,226.575607 145.975754,232.089966 
	C141.770676,226.719742 134.044708,224.718338 135.373276,216.262695 
	C135.540726,215.196991 135.787506,213.849518 136.509354,213.214020 
	C140.510254,209.691956 151.639038,209.874069 155.554443,213.476715 
	C156.046814,213.929779 155.956192,215.016418 156.137451,216.241531 
z"/>
<path fill="#0796F0" opacity="1.000000" stroke="none" 
	d="
M113.577248,225.717346 
	C115.420151,219.682053 120.746971,218.555130 125.141060,218.188385 
	C127.255173,218.011963 130.874573,222.100464 131.799576,224.918335 
	C132.967514,228.476242 132.081497,232.708389 132.081497,237.285721 
	C126.021492,236.164154 120.244850,239.363068 114.991585,234.946640 
	C111.760147,232.229965 110.990326,229.552780 113.577248,225.717346 
z"/>
<path fill="#0796F0" opacity="1.000000" stroke="none" 
	d="
M161.791779,221.067627 
	C166.413132,217.039963 174.273804,218.474792 177.056351,223.521454 
	C181.965042,232.424255 178.981110,237.178207 168.480850,237.182922 
	C165.838516,237.184113 163.196167,237.183105 159.819977,237.183105 
	C160.205887,231.660706 157.857880,226.323013 161.791779,221.067627 
z"/>
<path fill="#169CF1" opacity="1.000000" stroke="none" 
	d="
M159.360413,214.702179 
	C159.508850,208.826797 153.704910,210.814621 151.155121,207.506149 
	C157.733536,206.038086 162.747681,202.824203 164.665955,195.594559 
	C165.625931,197.717957 166.087753,200.412933 167.685043,201.805130 
	C169.304474,203.216614 172.045776,203.340942 175.002533,204.245178 
	C169.508896,207.542587 170.830185,211.777679 174.777359,217.123093 
	C169.007401,215.834457 163.904221,211.077438 160.140045,219.380188 
	C159.699585,216.912964 159.537521,216.005173 159.360413,214.702179 
z"/>
<path fill="#129AF0" opacity="1.000000" stroke="none" 
	d="
M120.803543,209.120819 
	C119.532257,207.258102 118.272682,205.761826 115.997200,203.058731 
	C123.284340,205.057358 125.497345,200.996582 127.291107,195.653656 
	C129.187424,202.516708 133.501144,206.226196 141.423798,207.472824 
	C136.506699,210.438629 129.725555,210.310913 132.150803,218.470276 
	C127.768036,212.647537 123.325272,213.999878 118.130585,216.497391 
	C119.025475,214.160675 119.920364,211.823975 120.803543,209.120819 
z"/>
<path fill="#129AF0" opacity="1.000000" stroke="none" 
	d="
M103.526184,240.402924 
	C102.727623,242.032608 102.111168,243.333099 100.819252,246.058578 
	C99.327652,238.158951 95.074059,234.314301 86.815407,232.935150 
	C92.451538,230.375961 98.842484,230.051834 96.175774,221.884903 
	C100.557961,228.182404 105.405060,225.833435 111.653091,222.963943 
	C107.784462,228.744400 106.183533,233.094574 111.157631,235.819641 
	C108.561821,237.302017 106.135056,238.687881 103.526184,240.402924 
z"/>
<path fill="#109AF0" opacity="1.000000" stroke="none" 
	d="
M196.704742,235.668701 
	C194.346771,238.723999 192.330231,241.627258 190.084030,244.861176 
	C188.403824,240.453323 187.180817,235.117371 179.534256,237.128555 
	C185.394135,233.289154 183.735107,228.994034 180.537918,223.392120 
	C186.305984,225.683914 190.946991,228.210724 194.499939,222.181870 
	C195.858276,228.661728 195.858276,228.661728 203.688614,232.734985 
	C201.278839,233.744125 199.162521,234.630386 196.704742,235.668701 
z"/>
<path fill="#25A2F1" opacity="1.000000" stroke="none" 
	d="
M162.935730,247.203491 
	C161.526321,245.383255 160.495850,243.542450 159.465378,241.701630 
	C161.169067,241.167023 162.841339,240.443024 164.585709,240.153595 
	C166.174927,239.889908 167.842361,240.097763 170.242859,241.092346 
	C167.933456,243.122543 165.624039,245.152725 162.935730,247.203491 
z"/>
<path fill="#169CF1" opacity="1.000000" stroke="none" 
	d="
M159.451935,257.261200 
	C161.818695,251.862610 162.455826,251.770035 166.290421,255.226395 
	C167.600204,256.407013 169.338089,257.112671 170.195602,258.932190 
	C166.173218,258.867096 162.091461,262.541138 159.451935,257.261200 
z"/>
<path fill="#25A2F1" opacity="1.000000" stroke="none" 
	d="
M140.201065,263.261475 
	C143.049316,264.965698 143.620956,266.616302 141.008606,268.686310 
	C139.363022,269.990265 137.899078,271.523468 135.661774,273.594238 
	C135.661774,269.700684 135.661774,266.727753 135.661774,263.122803 
	C137.041718,263.122803 138.438934,263.122803 140.201065,263.261475 
z"/>
<path fill="#25A2F1" opacity="1.000000" stroke="none" 
	d="
M137.824738,237.243713 
	C132.762985,234.657700 136.358566,230.725052 136.234604,226.991608 
	C138.525940,229.180023 140.817291,231.368454 143.899521,234.312241 
	C141.661163,235.476532 139.955353,236.363831 137.824738,237.243713 
z"/>
<path fill="#169CF1" opacity="1.000000" stroke="none" 
	d="
M125.906464,245.216339 
	C124.340988,243.730560 123.052856,242.507080 120.980339,240.538574 
	C125.283569,240.538574 128.456146,240.538574 132.879684,240.538574 
	C131.736847,242.936050 131.029510,244.941940 129.810638,246.563263 
	C129.547760,246.912964 127.441147,245.876556 125.906464,245.216339 
z"/>
<path fill="#169CF1" opacity="1.000000" stroke="none" 
	d="
M130.594208,259.894653 
	C127.562157,259.944336 124.966507,259.944336 121.513031,259.944336 
	C124.330521,257.308899 126.502396,255.277359 128.976135,252.963455 
	C131.614548,254.365479 133.672867,256.208130 130.594208,259.894653 
z"/>
<path fill="#109AF0" opacity="1.000000" stroke="none" 
	d="
M156.150299,233.102295 
	C155.652466,234.740295 154.950333,237.022980 154.690628,236.973709 
	C152.557770,236.569077 150.507187,235.730774 147.417374,234.678711 
	C150.774826,231.549149 152.989182,229.485092 155.881958,226.788651 
	C155.995972,229.279312 156.073486,230.972763 156.150299,233.102295 
z"/>
<path fill="#0B97F0" opacity="1.000000" stroke="none" 
	d="
M154.194077,263.086761 
	C155.305496,266.124786 155.992767,269.146088 156.680054,272.167389 
	C156.193024,272.367981 155.705994,272.568542 155.218964,272.769104 
	C153.032303,270.678711 150.845642,268.588348 147.813980,265.690155 
	C150.238037,264.623779 152.003983,263.846893 154.194077,263.086761 
z"/>
<path fill="#FEFFFF" opacity="1.000000" stroke="none" 
	d="
M133.509796,285.645386 
	C132.755905,284.711975 132.516266,283.886719 132.308258,282.614258 
	C132.749161,282.133118 133.158432,282.099182 134.189774,282.077759 
	C134.549255,283.311310 134.286636,284.532440 133.509796,285.645386 
z"/>
<path fill="#F1FAFE" opacity="1.000000" stroke="none" 
	d="
M240.055573,282.143982 
	C244.336365,282.367706 249.639206,281.166351 249.729080,286.914948 
	C249.821503,292.824860 244.430862,291.474670 240.649963,291.735199 
	C239.679581,291.802094 238.693741,291.644409 236.921234,291.545654 
	C238.225922,288.306976 234.106873,284.249268 240.055573,282.143982 
z"/>
<path fill="#F1FAFE" opacity="1.000000" stroke="none" 
	d="
M245.911041,274.239014 
	C242.928680,274.523834 240.338364,274.685730 237.330688,274.873718 
	C237.330688,271.798462 237.330688,269.129974 237.330688,266.053497 
	C241.214508,266.378693 245.745255,263.878326 248.321793,268.515656 
	C248.955627,269.656464 247.044312,272.211334 245.911041,274.239014 
z"/>
<path fill="#F9FDFF" opacity="1.000000" stroke="none" 
	d="
M275.702393,276.562744 
	C281.312286,272.583649 287.240326,276.066406 287.788025,282.378204 
	C288.192688,287.041534 285.250519,290.908295 281.050629,291.224762 
	C276.433014,291.572662 272.846588,288.200897 273.132568,283.172150 
	C273.254700,281.024384 274.613434,278.946930 275.702393,276.562744 
z"/>
<path fill="#F9FDFF" opacity="1.000000" stroke="none" 
	d="
M320.778625,274.926758 
	C326.190735,276.216675 327.445801,279.836090 327.056244,284.415771 
	C326.759338,287.906281 325.010681,290.321503 321.476654,291.085083 
	C317.106476,292.029297 313.616516,289.556976 312.855835,285.103882 
	C311.816010,279.016663 314.272614,275.680603 320.778625,274.926758 
z"/>
<path fill="#F9FDFF" opacity="1.000000" stroke="none" 
	d="
M331.444336,233.367432 
	C328.277863,236.901398 324.774170,237.328339 321.425873,234.858414 
	C317.943512,232.289566 317.507416,228.476364 318.946167,224.535355 
	C320.272064,220.903549 323.064270,219.462921 326.808960,219.961273 
	C332.175232,220.675430 334.299408,226.445480 331.444336,233.367432 
z"/>
<path fill="#F9FDFF" opacity="1.000000" stroke="none" 
	d="
M408.103943,284.597961 
	C407.773621,280.205963 408.870361,276.527405 412.894989,275.410645 
	C415.062866,274.809082 419.063263,275.428619 419.984833,276.903900 
	C421.612335,279.509277 422.510406,283.431122 421.805176,286.338989 
	C421.310760,288.377441 417.820831,290.587524 415.356598,291.046906 
	C411.309326,291.801361 409.179230,288.687866 408.103943,284.597961 
z"/>
<path fill="#FEFFFF" opacity="1.000000" stroke="none" 
	d="
M134.642731,286.099609 
	C134.976990,287.111237 134.983047,287.947266 134.987625,289.191193 
	C134.134857,288.660980 133.283585,287.722931 132.727753,286.638489 
	C133.453644,286.302765 133.884094,286.113403 134.642731,286.099609 
z"/>
</svg>